<?xml version="1.0" standalone="no"?>
<!DOCTYPE svg PUBLIC "-//W3C//DTD SVG 20010904//EN"
 "http://www.w3.org/TR/2001/REC-SVG-20010904/DTD/svg10.dtd">
<svg version="1.0" xmlns="http://www.w3.org/2000/svg"
 width="512.000000pt" height="512.000000pt" viewBox="0 0 512.000000 512.000000"
 preserveAspectRatio="xMidYMid meet">
<metadata>
Created by potrace 1.11, written by Peter Selinger 2001-2013
</metadata>
<g transform="translate(0.000000,512.000000) scale(0.100000,-0.100000)"
fill="#000000" stroke="none">
<path d="M1508 5115 c-7 -7 -145 -33 -265 -50 -21 -3 -49 -8 -61 -11 -13 -3
-43 -7 -65 -11 -77 -10 -129 -36 -162 -79 -16 -22 -39 -53 -50 -67 -15 -21
-31 -28 -70 -32 -100 -11 -122 -22 -145 -69 -22 -46 -95 -101 -160 -121 -3 -1
-17 -5 -32 -9 -24 -7 -76 -52 -70 -62 1 -2 2 -7 1 -11 -4 -29 2 -93 10 -116
10 -25 7 -29 -28 -55 -21 -15 -47 -32 -56 -37 -22 -13 -25 -50 -8 -92 7 -18
10 -33 6 -33 -4 0 -2 -5 5 -12 7 -7 12 -18 12 -25 0 -7 8 -32 19 -56 10 -23
39 -89 63 -147 25 -58 49 -104 54 -104 5 1 18 5 30 8 13 4 21 2 21 -6 0 -7 4
-51 7 -98 13 -156 14 -174 21 -285 9 -129 10 -155 19 -300 4 -60 9 -134 11
-162 3 -29 8 -106 11 -170 3 -65 7 -147 9 -183 14 -235 17 -315 20 -575 1
-159 6 -479 10 -710 13 -703 13 -711 -8 -805 -21 -101 -27 -155 -31 -313 -3
-108 -1 -119 16 -128 38 -20 151 -48 308 -75 79 -13 98 -16 130 -21 61 -8 85
-12 85 -13 0 -1 14 -3 30 -4 17 -2 64 -8 105 -14 73 -11 130 -17 240 -27 30
-3 69 -8 85 -10 145 -22 514 -22 725 -1 45 5 183 17 235 21 40 3 133 13 190
20 17 2 57 7 90 10 33 3 67 8 75 10 8 2 38 7 65 10 28 3 61 7 75 10 14 2 43 7
65 10 69 10 121 20 260 52 11 2 31 13 45 23 23 17 24 24 22 102 -1 70 -7 123
-12 123 0 0 -3 20 -5 45 -3 25 -7 56 -10 70 -13 65 -8 110 15 135 23 24 114
63 200 85 25 7 50 15 55 19 6 4 33 16 60 26 28 10 54 22 59 26 6 5 17 9 25 9
8 0 87 35 175 79 108 53 174 92 200 117 39 40 186 254 186 272 0 6 3 12 8 14
22 10 157 296 177 378 1 3 4 12 8 20 8 19 66 212 68 225 1 6 6 21 11 35 17 43
59 211 73 288 9 51 11 168 9 400 -3 392 -6 436 -37 569 -6 22 -82 182 -116
240 -42 74 -113 158 -151 178 -29 15 -161 39 -295 54 -49 6 -112 13 -140 16
-27 3 -77 8 -110 10 -262 19 -288 23 -312 48 l-22 22 37 75 c20 41 38 84 39
95 1 11 5 43 9 70 9 58 10 303 2 355 -21 127 -50 176 -158 258 -19 15 -37 29
-40 32 -8 9 -109 74 -205 132 -84 51 -291 157 -360 185 -93 38 -108 40 -350
58 -55 4 -116 9 -135 11 -19 2 -69 6 -110 8 -41 3 -93 7 -115 10 -22 3 -80 8
-130 11 -49 3 -117 8 -150 11 -96 8 -412 14 -417 9z m2427 -1730 c66 -3 145
-8 175 -12 30 -3 62 -6 70 -5 30 1 146 -20 173 -31 45 -19 68 -82 84 -232 9
-81 10 -761 1 -880 -9 -123 -109 -393 -245 -656 -63 -124 -67 -129 -203 -262
-77 -75 -147 -140 -157 -145 -53 -28 -244 -44 -318 -28 -11 2 -29 5 -40 5 -58
2 -67 191 -40 796 3 61 7 166 10 235 6 150 12 273 20 440 3 69 8 166 10 215
10 194 23 323 39 380 2 6 6 24 11 40 12 44 40 96 68 127 25 27 27 27 124 23
54 -3 152 -7 218 -10z"/>
</g>
</svg>
